<svg width="151" height="32" viewBox="0 0 151 32" fill="none" xmlns="http://www.w3.org/2000/svg">
<path d="M44.4182 22.4254C43.4834 22.4254 42.5853 22.2467 41.7238 21.8893C40.8623 21.5319 40.1017 21.0232 39.4418 20.3634C38.782 19.7035 38.2733 18.9429 37.9159 18.0814C37.5585 17.2199 37.3798 16.3218 37.3798 15.387C37.3798 14.4522 37.5585 13.5541 37.9159 12.6926C38.2733 11.8312 38.782 11.0705 39.4418 10.4107C40.1017 9.7508 40.8623 9.24217 41.7238 8.88475C42.5853 8.52733 43.4834 8.34862 44.4182 8.34862C45.353 8.34862 46.2511 8.52733 47.1126 8.88475C47.9741 9.24217 48.7347 9.7508 49.3946 10.4107C50.0544 11.0705 50.563 11.8312 50.9205 12.6926C51.2779 13.5541 51.4566 14.4522 51.4566 15.387C51.4566 16.3218 51.2779 17.2199 50.9205 18.0814C50.563 18.9429 50.0544 19.7035 49.3946 20.3634C48.7347 21.0232 47.9741 21.5319 47.1126 21.8893C46.2511 22.2467 45.353 22.4254 44.4182 22.4254ZM44.4182 18.9062C45.3896 18.9062 46.219 18.5625 46.9064 17.8752C47.5937 17.1879 47.9374 16.3585 47.9374 15.387C47.9374 14.4156 47.5937 13.5862 46.9064 12.8988C46.219 12.2115 45.3896 11.8678 44.4182 11.8678C43.4468 11.8678 42.6174 12.2115 41.93 12.8988C41.2427 13.5862 40.899 14.4156 40.899 15.387C40.899 16.3585 41.2427 17.1879 41.93 17.8752C42.6174 18.5625 43.4468 18.9062 44.4182 18.9062ZM59.8559 18.9062C60.8274 18.9062 61.6568 18.5625 62.3441 17.8752C63.0315 17.1879 63.3751 16.3585 63.3751 15.387C63.3751 14.4156 63.0315 13.5862 62.3441 12.8988C61.6568 12.2115 60.8274 11.8678 59.8559 11.8678C58.8845 11.8678 58.0551 12.2115 57.3677 12.8988C56.6804 13.5862 56.3367 14.4156 56.3367 15.387C56.3367 16.3585 56.6804 17.1879 57.3677 17.8752C58.0551 18.5625 58.8845 18.9062 59.8559 18.9062ZM52.8175 15.387C52.8175 14.4522 52.9962 13.5541 53.3537 12.6926C53.7111 11.8312 54.2197 11.0705 54.8796 10.4107C55.5394 9.7508 56.3001 9.24217 57.1615 8.88475C58.023 8.52733 58.9211 8.34862 59.8559 8.34862C60.7907 8.34862 61.6888 8.52733 62.5503 8.88475C63.4118 9.24217 64.1724 9.7508 64.8323 10.4107C65.4921 11.0705 66.0008 11.8312 66.3582 12.6926C66.7156 13.5541 66.8943 14.4522 66.8943 15.387C66.8943 16.3218 66.7156 17.2199 66.3582 18.0814C66.0008 18.9429 65.4921 19.7035 64.8323 20.3634C64.1724 21.0232 63.4118 21.5319 62.5503 21.8893C61.6888 22.2467 60.7907 22.4254 59.8559 22.4254C58.9211 22.4254 58.023 22.2467 57.1615 21.8893C56.8774 21.7701 56.6025 21.6327 56.3367 21.4769V25.9446H52.8175V15.387ZM71.9394 22.4254H68.4202V8.34862H71.9394V22.4254ZM70.1798 6.58902C69.575 6.58902 69.0572 6.37366 68.6264 5.94292C68.1957 5.51219 67.9803 4.99439 67.9803 4.38952C67.9803 3.78466 68.1957 3.26686 68.6264 2.83613C69.0572 2.40539 69.575 2.19003 70.1798 2.19003C70.7847 2.19003 71.3025 2.40539 71.7332 2.83613C72.164 3.26686 72.3793 3.78466 72.3793 4.38952C72.3793 4.99439 72.164 5.51219 71.7332 5.94292C71.3025 6.37366 70.7847 6.58902 70.1798 6.58902ZM77.8093 15.387V22.4254H74.2901V15.387C74.2901 14.4522 74.4688 13.5541 74.8263 12.6926C75.1837 11.8312 75.6923 11.0705 76.3522 10.4107C77.012 9.7508 77.7727 9.24217 78.6341 8.88475C79.4956 8.52733 80.3937 8.34862 81.3285 8.34862C82.2633 8.34862 83.1615 8.52733 84.0229 8.88475C84.8844 9.24217 85.6451 9.7508 86.3049 10.4107C86.9648 11.0705 87.4734 11.8312 87.8308 12.6926C88.1882 13.5541 88.3669 14.4522 88.3669 15.387V22.4254H84.8477V15.387C84.8477 14.4156 84.5041 13.5862 83.8167 12.8988C83.1294 12.2115 82.3 11.8678 81.3285 11.8678C80.3571 11.8678 79.5277 12.2115 78.8404 12.8988C78.153 13.5862 77.8093 14.4156 77.8093 15.387ZM94.2781 22.4254H90.7589V8.34862H94.2781V22.4254ZM92.5185 6.58902C91.9136 6.58902 91.3958 6.37366 90.9651 5.94292C90.5344 5.51219 90.319 4.99439 90.319 4.38952C90.319 3.78466 90.5344 3.26686 90.9651 2.83613C91.3958 2.40539 91.9136 2.19003 92.5185 2.19003C93.1234 2.19003 93.6411 2.40539 94.0719 2.83613C94.5026 3.26686 94.718 3.78466 94.718 4.38952C94.718 4.99439 94.5026 5.51219 94.0719 5.94292C93.6411 6.37366 93.1234 6.58902 92.5185 6.58902ZM102.801 22.4254C101.866 22.4254 100.968 22.2467 100.107 21.8893C99.2453 21.5319 98.4846 21.0232 97.8248 20.3634C97.1649 19.7035 96.6563 18.9429 96.2989 18.0814C95.9415 17.2199 95.7627 16.3218 95.7627 15.387C95.7627 14.4522 95.9415 13.5541 96.2989 12.6926C96.6563 11.8312 97.1649 11.0705 97.8248 10.4107C98.4846 9.7508 99.2453 9.24217 100.107 8.88475C100.968 8.52733 101.866 8.34862 102.801 8.34862C103.736 8.34862 104.634 8.52733 105.496 8.88475C106.357 9.24217 107.118 9.7508 107.778 10.4107C108.437 11.0705 108.946 11.8312 109.303 12.6926C109.661 13.5541 109.84 14.4522 109.84 15.387C109.84 16.3218 109.661 17.2199 109.303 18.0814C108.946 18.9429 108.437 19.7035 107.778 20.3634C107.118 21.0232 106.357 21.5319 105.496 21.8893C104.634 22.2467 103.736 22.4254 102.801 22.4254ZM102.801 18.9062C103.773 18.9062 104.602 18.5625 105.289 17.8752C105.977 17.1879 106.32 16.3585 106.32 15.387C106.32 14.4156 105.977 13.5862 105.289 12.8988C104.602 12.2115 103.773 11.8678 102.801 11.8678C101.83 11.8678 101 12.2115 100.313 12.8988C99.6256 13.5862 99.2819 14.4156 99.2819 15.387C99.2819 16.3585 99.6256 17.1879 100.313 17.8752C101 18.5625 101.83 18.9062 102.801 18.9062ZM115.118 15.387V22.4254H111.599V15.387C111.599 14.4522 111.778 13.5541 112.135 12.6926C112.493 11.8312 113.001 11.0705 113.661 10.4107C114.321 9.7508 115.082 9.24217 115.943 8.88475C116.805 8.52733 117.703 8.34862 118.638 8.34862C119.572 8.34862 120.47 8.52733 121.332 8.88475C122.193 9.24217 122.954 9.7508 123.614 10.4107C124.274 11.0705 124.782 11.8312 125.14 12.6926C125.497 13.5541 125.676 14.4522 125.676 15.387V22.4254H122.157V15.387C122.157 14.4156 121.813 13.5862 121.126 12.8988C120.438 12.2115 119.609 11.8678 118.638 11.8678C117.666 11.8678 116.837 12.2115 116.149 12.8988C115.462 13.5862 115.118 14.4156 115.118 15.387Z" fill="#132450"/>
<path d="M131.94 22.4254H128.421V4.82942H131.94V22.4254ZM138.277 17.0366V22.4254H134.758V4.82942H138.277V13.7374L143.996 8.34862H148.835L141.797 15.387L148.835 22.4254H143.996L138.277 17.0366Z" fill="#00BFA6"/>
<path d="M29.9496 15.495C29.9496 22.0336 24.6491 27.3342 18.1105 27.3342C11.572 27.3342 6.27141 22.0336 6.27141 15.495C6.27141 8.95648 11.572 3.65593 18.1105 3.65593C24.6491 3.65593 29.9496 8.95648 29.9496 15.495Z" fill="#6C63FF" stroke="#132450" stroke-width="1.30064"/>
<path d="M33.5349 0.843087L33.5345 0.843313C28.6247 3.80175 22.8221 7.67583 12.5589 17.818C12.3296 18.0446 11.9689 18.069 11.7112 17.8754L5.11661 12.9212L5.11628 12.9209C4.86729 12.7336 4.56125 12.639 4.25055 12.653C3.95121 12.6664 3.66515 12.7799 3.43778 12.9751L1.14741 15.5878C1.13078 15.6068 1.11306 15.6247 1.09434 15.6417C0.960634 15.7624 0.852452 15.909 0.776293 16.0727C0.700132 16.2364 0.657567 16.4137 0.651166 16.5943C0.644766 16.7749 0.674664 16.9549 0.739055 17.1236C0.803444 17.2922 0.900994 17.4462 1.02584 17.5762L1.03387 17.5846L1.0338 17.5846L12.2746 29.7177L12.2817 29.7253L12.2816 29.7254C12.6069 30.088 13.23 30.3751 13.8895 30.3648C14.5133 30.3551 15.1386 30.0816 15.5534 29.3556C18.2381 24.6561 22.636 16.9903 27.0361 11.7555C27.0415 11.7491 27.047 11.7427 27.0527 11.7365C27.7474 10.972 28.4777 10.1443 29.2275 9.29442C30.9573 7.33372 32.7915 5.25478 34.5353 3.56006L34.5388 3.55667L34.9872 3.12736L34.9937 3.12117L34.9937 3.12121L35.1073 3.01543C35.118 3.00381 35.1292 2.99259 35.1408 2.98178C35.3728 2.7654 35.5211 2.47358 35.5593 2.15784C35.5974 1.84211 35.5229 1.52315 35.3491 1.25736L33.5349 0.843087ZM33.5349 0.843087C33.8321 0.663715 34.187 0.606728 34.525 0.6839M33.5349 0.843087L34.525 0.6839M34.525 0.6839C34.863 0.761049 35.1584 0.966391 35.3491 1.25728L34.525 0.6839Z" fill="#00BFA6" stroke="#132450" stroke-width="1.30064" stroke-linecap="round" stroke-linejoin="round"/>
</svg>
